<svg width="19" height="12" viewBox="0 0 19 12" fill="none" xmlns="http://www.w3.org/2000/svg"><path d="M18 12H.316A.316.316 0 0 1 0 11.684V.316C0 .14.141 0 .316 0H18c.174 0 .316.141.316.316v11.368A.316.316 0 0 1 18 12z" fill="#41479B"/><path d="M18.316.316A.316.316 0 0 0 18 0h-1.413l-5.85 3.833V0H7.579v3.833L1.729 0H.316A.316.316 0 0 0 0 .316v.817L5.02 4.42H0v3.158h5.02L0 10.867v.817c0 .175.141.316.316.316h1.413l5.85-3.833V12h3.158V8.167L16.587 12H18a.316.316 0 0 0 .316-.316v-.816l-5.02-3.289h5.02V4.421h-5.02l5.02-3.288V.316z" fill="#F5F5F5"/><path d="M18.316 5.053h-8.21V0H8.21v5.053H0v1.894h8.21V12h1.895V6.947h8.21V5.053z" fill="#FF4B55"/><path d="M6.401 7.579L.01 11.729a.312.312 0 0 0 .307.27H.75l6.81-4.42H6.4zm5.991 0h-1.16l6.8 4.414a.313.313 0 0 0 .284-.309v-.26L12.392 7.58zM0 .664l5.787 3.757h1.16L.184.031A.314.314 0 0 0 0 .316v.348zm11.896 3.757l6.408-4.16A.312.312 0 0 0 18 0h-.453l-6.81 4.421h1.16z" fill="#FF4B55"/></svg>